<?xml version="1.0" encoding="utf-8"?>
<!-- Generator: Adobe Illustrator 23.0.1, SVG Export Plug-In . SVG Version: 6.00 Build 0)  -->
<svg version="1.1" id="e8c09660-db65-4061-a2dc-920e909a0453"
	 xmlns="http://www.w3.org/2000/svg" xmlns:xlink="http://www.w3.org/1999/xlink" x="0px" y="0px" viewBox="0 0 1058 557"
	 style="enable-background:new 0 0 1058 557;" xml:space="preserve">
<style type="text/css">
	.st0{opacity:0.69;fill:#FFFFFF;}
	.st1{fill:#3F3D56;}
	.st2{opacity:0.1;enable-background:new    ;}
	.st3{fill:#3D9970;}
	.st4{fill:#FFB8B8;}
	.st5{fill:#511322;}
	.st6{fill:#2F2E41;}
	.st7{fill:#D0CDE1;}
	.st8{fill:#F2F2F2;}
	.st9{fill:#FF6584;}
	.st10{fill:#F012BE;}
</style>
<title>web_development</title>
<path class="st0" d="M929.1,248.6L829,296l88.6-66.3c-14.4-22.5-30.6-43.8-48.4-63.7L435,274l392.2-149.6
	c-17.9-15.8-37-30.3-57-43.4L108.6,187.5C38.4,275.4,0.1,384.5,0,497h996C995.9,409.8,972.9,324.1,929.1,248.6z"/>
<path class="st0" d="M716.1,50.2C648.2,17.1,573.6-0.1,498,0C344.2,0,206.6,69.8,115.3,179.3C271.7,145.1,544.1,85.7,716.1,50.2z"/>
<path class="st1" d="M996,495c0,15.5-143.7,62-321,62s-321-46.5-321-62s143.7,6,321,6S996,479.5,996,495z"/>
<path class="st2" d="M996,495c0,15.5-143.7,62-321,62s-321-46.5-321-62s143.7,6,321,6S996,479.5,996,495z"/>
<ellipse class="st3" cx="675" cy="495" rx="321" ry="28"/>
<path class="st4" d="M585.6,267.1c0,0,12.9,20.5,8.3,26s34.6,5.7,34.6,5.7s-5.9-29.8-4.2-36.6L585.6,267.1z"/>
<path class="st2" d="M585.6,267.1c0,0,12.9,20.5,8.3,26s34.6,5.7,34.6,5.7s-5.9-29.8-4.2-36.6L585.6,267.1z"/>
<circle class="st5" cx="606.3" cy="234.1" r="40.5"/>
<polygon class="st4" points="701.5,453.5 701.5,477.5 725.5,472.5 723.5,455.5 "/>
<path class="st4" d="M786.5,457.5l67,11l-17,25c0,0-47-16-59-16S786.5,457.5,786.5,457.5z"/>
<path class="st6" d="M634.5,409.5c0,0,50-58,66-55s23,21,23,21l9,89c0,0-32,3-32,0s-6-67-6-67s-47,104-72,35L634.5,409.5z"/>
<path class="st6" d="M553.5,448.5c0,0,1,50,31,53s63-20,63-20l54-25.9c0,0,64,33.9,83,24.9c0,0,20-21,7-27s-1,0-1,0l-77-40
	c0,0-15-4-41,7s-61,16-61,16L553.5,448.5z"/>
<circle class="st4" cx="603.5" cy="247.5" r="30"/>
<path class="st1" d="M646.5,331.5l-2,42c0,0,1,55-8,59c-4.5,2-13.7,6.1-22.1,10.5c-6.3,3.3-12.3,6.8-15.6,9.9
	c-0.9,0.7-1.6,1.6-2.2,2.6c-4,7-30,6-36,1s-2,6-7,8c-4.8,1.9-11.5-13.9-7.4-37.6c0.1-0.8,0.3-1.6,0.4-2.4c4.6-23-2.6-77.9-1.5-99.2
	c0.1-1.6,0.2-3.2,0.5-4.8c3-16,41.3-48.6,48.4-34.7c8.8,17.1,29.1,1.5,32.6-6.3c20-1,27,23,27,23L646.5,331.5z"/>
<path class="st6" d="M727.5,468.5c0,0-16,6-21,5s-10,3-10,9s-6,20,3,21s46-1,54,2c0,0,36,1,33-14s-18-14-18-14
	S727.5,475.5,727.5,468.5z"/>
<path class="st6" d="M844.5,471.5c0,0,2-6,5-6s27,4,30,3s38-3,32,14s-26,19-26,19s-36-4-41-3s-23,0-20-5S846.5,479.5,844.5,471.5z"
	/>
<path class="st7" d="M753.5,327.9l5.5,22.6c0.1,0.3,0.1,0.5,0,0.8L734,429c-0.2,0.7-1,1.2-1.8,0.9c-0.5-0.2-0.9-0.6-1-1.2l-3.4-30.3
	c0-0.2,0-0.4,0.1-0.6l22.8-70.1c0.2-0.7,1-1.1,1.8-0.9C753,327,753.4,327.4,753.5,327.9z"/>
<polygon class="st8" points="751.5,329.8 756.5,349.2 734.6,420.1 729.5,398.2 "/>
<path class="st7" d="M640.9,435.3c0.8,2.5,87.8-0.8,88.6-1.7c0.7-1.1,1.4-2.2,1.9-3.4c0.8-1.7,1.5-3.4,1.5-3.4l-3.4-27.3l-86.1-3.1
	c0,0-2.2,23.2-2.6,33.8C640.7,431.9,640.7,433.6,640.9,435.3z"/>
<polygon class="st2" points="718.5,403.2 720.2,426.9 682.2,426.9 682.2,403.2 "/>
<polygon class="st2" points="669.6,410.8 669.8,410.8 668.7,420.9 647.6,420.9 647.6,410.8 "/>
<path class="st2" d="M640.9,435.3c0.8,2.5,87.8-0.8,88.6-1.7c0.7-1.1,1.4-2.2,1.9-3.4h-90.6C640.7,431.9,640.7,433.6,640.9,435.3z"
	/>
<path class="st9" d="M627.4,162c-3.1,4.4-7.6,7.5-12.8,8.8c-8.9,2.4-0.1,15.8-0.1,15.8s-3.2-4.9,1.4-10S628.1,167.8,627.4,162z"/>
<circle class="st5" cx="613" cy="189.8" r="11.3"/>
<path class="st10" d="M627.4,199.3c-9.2-3.5-24.5-5.2-32.4-4l1.1-7.9c7.6,3.9,22.8,5.8,32.4,4L627.4,199.3z"/>
<path class="st5" d="M609.6,202.1c0,0-11.5,19.2-38.3,26.4s-0.2,47.5-0.2,47.5s-9.7-14.6,4.3-30.2S611.7,219.6,609.6,202.1z"/>
<path class="st5" d="M610.5,200.9c0,0,11.1,26.3,23.2,28.8s11.2,44.1-7.8,50.3c0,0,13.9-24.4,2-40.8S608.6,210,610.5,200.9z"/>
<path class="st2" d="M614.4,443c-2.5,4.7-5.4,9.5-5.9,11.5c-0.3,1.3-4,0.6-9.8-1.6c-11.5-4.4-31.6-14.4-50.2-24.4
	c-0.9-0.5-1.7-1-2.4-1.6c0.1-0.8,0.3-1.6,0.4-2.4c4.6-23-2.6-77.9-1.5-99.2l8.5-2.8l17,16v68c0,0,44,24,47,26
	C619,433.5,616.9,438.2,614.4,443z"/>
<path class="st4" d="M651.5,388.5l27,14c0,0,16-17,26-4s-29,17-29,17s-34-8-35-19S651.5,388.5,651.5,388.5z"/>
<path class="st4" d="M606.5,425.5l16,4c0,0,18-22,37-14s-24,24-24,24s-23,12-32,2S606.5,425.5,606.5,425.5z"/>
<path class="st1" d="M641.5,293.5c1,1,12,9,12,9s3,38-1,46s-7,8-4,12s7,1,3,8s-8,6-5,9s2,4,2,4l12,10c0,0-7.4,11.7-16.7,10.9
	s-17.3-45.9-17.3-45.9L641.5,293.5z"/>
<path class="st1" d="M553.5,317.5l-9,3c0,0-24,88,4,103s59,30,60,26s12-20,9-22s-47-26-47-26v-68L553.5,317.5z"/>
<polygon class="st2" points="567,354 565,402 618,427 569,402 "/>
<path class="st1" d="M1013.1,461.6c-20.2,11.9-28.1,35.8-28.1,35.8s24.7,4.6,44.9-7.3s28.1-35.8,28.1-35.8
	S1033.2,449.8,1013.1,461.6z"/>
<path class="st10" d="M1020.2,469c-11.3,20.5-34.9,29.1-34.9,29.1s-5.3-24.6,5.9-45.1s34.9-29.1,34.9-29.1S1031.4,448.5,1020.2,469z
	"/>
</svg>
